  0
SECTION
  2
HEADER
  9
$ACADVER
  1
AC1015
  9
$ACADMAINTVER
 70
     6
  9
$DWGCODEPAGE
  3
ANSI_1252
  9
$INSBASE
 10
0.0
 20
0.0
 30
0.0
  9
$EXTMIN
 10
-419.2606441888
 20
-293.7480589875
 30
0.0
  9
$EXTMAX
 10
-62.5678151268
 20
58.4018862733
 30
0.0
  9
$LIMMIN
 10
0.0
 20
0.0
  9
$LIMMAX
 10
420.0
 20
297.0
  9
$ORTHOMODE
 70
     0
  9
$REGENMODE
 70
     1
  9
$FILLMODE
 70
     1
  9
$QTEXTMODE
 70
     0
  9
$MIRRTEXT
 70
     1
  9
$LTSCALE
 40
1.0
  9
$ATTMODE
 70
     1
  9
$TEXTSIZE
 40
3.5
  9
$TRACEWID
 40
1.0
  9
$TEXTSTYLE
  7
Standard
  9
$CLAYER
  8
0
  9
$CELTYPE
  6
ByLayer
  9
$CECOLOR
 62
   256
  9
$CELTSCALE
 40
1.0
  9
$DISPSILH
 70
     0
  9
$DIMSCALE
 40
1.0
  9
$DIMASZ
 40
3.302
  9
$DIMEXO
 40
0.0
  9
$DIMDLI
 40
3.75
  9
$DIMRND
 40
0.0
  9
$DIMDLE
 40
0.0
  9
$DIMEXE
 40
1.0
  9
$DIMTP
 40
0.0
  9
$DIMTM
 40
0.0
  9
$DIMTXT
 40
3.5
  9
$DIMCEN
 40
2.5
  9
$DIMTSZ
 40
0.0
  9
$DIMTOL
 70
     0
  9
$DIMLIM
 70
     0
  9
$DIMTIH
 70
     1
  9
$DIMTOH
 70
     1
  9
$DIMSE1
 70
     0
  9
$DIMSE2
 70
     0
  9
$DIMTAD
 70
     1
  9
$DIMZIN
 70
     1
  9
$DIMBLK
  1

  9
$DIMASO
 70
     1
  9
$DIMSHO
 70
     1
  9
$DIMPOST
  1

  9
$DIMAPOST
  1

  9
$DIMALT
 70
     0
  9
$DIMALTD
 70
     3
  9
$DIMALTF
 40
0.0393700787
  9
$DIMLFAC
 40
1.0
  9
$DIMTOFL
 70
     1
  9
$DIMTVP
 40
0.0
  9
$DIMTIX
 70
     0
  9
$DIMSOXD
 70
     0
  9
$DIMSAH
 70
     0
  9
$DIMBLK1
  1

  9
$DIMBLK2
  1

  9
$DIMSTYLE
  2
ISO-25
  9
$DIMCLRD
 70
     0
  9
$DIMCLRE
 70
     0
  9
$DIMCLRT
 70
     0
  9
$DIMTFAC
 40
1.0
  9
$DIMGAP
 40
1.524
  9
$DIMJUST
 70
     0
  9
$DIMSD1
 70
     0
  9
$DIMSD2
 70
     0
  9
$DIMTOLJ
 70
     0
  9
$DIMTZIN
 70
     1
  9
$DIMALTZ
 70
     0
  9
$DIMALTTZ
 70
     0
  9
$DIMUPT
 70
     0
  9
$DIMDEC
 70
     2
  9
$DIMTDEC
 70
     2
  9
$DIMALTU
 70
     2
  9
$DIMALTTD
 70
     3
  9
$DIMTXSTY
  7
Standard
  9
$DIMAUNIT
 70
     0
  9
$DIMADEC
 70
     2
  9
$DIMALTRND
 40
0.0
  9
$DIMAZIN
 70
     0
  9
$DIMDSEP
 70
    44
  9
$DIMATFIT
 70
     3
  9
$DIMFRAC
 70
     0
  9
$DIMLDRBLK
  1

  9
$DIMLUNIT
 70
     2
  9
$DIMLWD
 70
    -2
  9
$DIMLWE
 70
    -2
  9
$DIMTMOVE
 70
     0
  9
$LUNITS
 70
     2
  9
$LUPREC
 70
     2
  9
$SKETCHINC
 40
1.0
  9
$FILLETRAD
 40
0.0
  9
$AUNITS
 70
     0
  9
$AUPREC
 70
     2
  9
$MENU
  1
.
  9
$ELEVATION
 40
0.0
  9
$PELEVATION
 40
0.0
  9
$THICKNESS
 40
0.0
  9
$LIMCHECK
 70
     0
  9
$CHAMFERA
 40
0.0
  9
$CHAMFERB
 40
0.0
  9
$CHAMFERC
 40
0.0
  9
$CHAMFERD
 40
0.0
  9
$SKPOLY
 70
     0
  9
$TDCREATE
 40
2460224.683425486
  9
$TDUCREATE
 40
2460224.808425486
  9
$TDUPDATE
 40
2460224.683454213
  9
$TDUUPDATE
 40
2460224.808454213
  9
$TDINDWG
 40
0.0000000116
  9
$TDUSRTIMER
 40
0.0000000116
  9
$USRTIMER
 70
     1
  9
$ANGBASE
 50
0.0
  9
$ANGDIR
 70
     0
  9
$PDMODE
 70
     0
  9
$PDSIZE
 40
-1.0
  9
$PLINEWID
 40
0.0
  9
$SPLFRAME
 70
     0
  9
$SPLINETYPE
 70
     6
  9
$SPLINESEGS
 70
     8
  9
$HANDSEED
  5
A1
  9
$SURFTAB1
 70
     6
  9
$SURFTAB2
 70
     6
  9
$SURFTYPE
 70
     6
  9
$SURFU
 70
     6
  9
$SURFV
 70
     6
  9
$UCSBASE
  2

  9
$UCSNAME
  2

  9
$UCSORG
 10
0.0
 20
0.0
 30
0.0
  9
$UCSXDIR
 10
1.0
 20
0.0
 30
0.0
  9
$UCSYDIR
 10
0.0
 20
1.0
 30
0.0
  9
$UCSORTHOREF
  2

  9
$UCSORTHOVIEW
 70
     0
  9
$UCSORGTOP
 10
0.0
 20
0.0
 30
0.0
  9
$UCSORGBOTTOM
 10
0.0
 20
0.0
 30
0.0
  9
$UCSORGLEFT
 10
0.0
 20
0.0
 30
0.0
  9
$UCSORGRIGHT
 10
0.0
 20
0.0
 30
0.0
  9
$UCSORGFRONT
 10
0.0
 20
0.0
 30
0.0
  9
$UCSORGBACK
 10
0.0
 20
0.0
 30
0.0
  9
$PUCSBASE
  2

  9
$PUCSNAME
  2

  9
$PUCSORG
 10
0.0
 20
0.0
 30
0.0
  9
$PUCSXDIR
 10
1.0
 20
0.0
 30
0.0
  9
$PUCSYDIR
 10
0.0
 20
1.0
 30
0.0
  9
$PUCSORTHOREF
  2

  9
$PUCSORTHOVIEW
 70
     0
  9
$PUCSORGTOP
 10
0.0
 20
0.0
 30
0.0
  9
$PUCSORGBOTTOM
 10
0.0
 20
0.0
 30
0.0
  9
$PUCSORGLEFT
 10
0.0
 20
0.0
 30
0.0
  9
$PUCSORGRIGHT
 10
0.0
 20
0.0
 30
0.0
  9
$PUCSORGFRONT
 10
0.0
 20
0.0
 30
0.0
  9
$PUCSORGBACK
 10
0.0
 20
0.0
 30
0.0
  9
$USERI1
 70
     0
  9
$USERI2
 70
     0
  9
$USERI3
 70
     0
  9
$USERI4
 70
     0
  9
$USERI5
 70
     0
  9
$USERR1
 40
0.0
  9
$USERR2
 40
0.0
  9
$USERR3
 40
0.0
  9
$USERR4
 40
0.0
  9
$USERR5
 40
0.0
  9
$WORLDVIEW
 70
     1
  9
$SHADEDGE
 70
     3
  9
$SHADEDIF
 70
    70
  9
$TILEMODE
 70
     1
  9
$MAXACTVP
 70
    64
  9
$PINSBASE
 10
0.0
 20
0.0
 30
0.0
  9
$PLIMCHECK
 70
     0
  9
$PEXTMIN
 10
1.0000000000E+20
 20
1.0000000000E+20
 30
1.0000000000E+20
  9
$PEXTMAX
 10
-1.0000000000E+20
 20
-1.0000000000E+20
 30
-1.0000000000E+20
  9
$PLIMMIN
 10
0.0
 20
0.0
  9
$PLIMMAX
 10
420.0
 20
297.0
  9
$UNITMODE
 70
     0
  9
$VISRETAIN
 70
     1
  9
$PLINEGEN
 70
     0
  9
$PSLTSCALE
 70
     1
  9
$TREEDEPTH
 70
  3020
  9
$CMLSTYLE
  2
Standard
  9
$CMLJUST
 70
     0
  9
$CMLSCALE
 40
20.0
  9
$PROXYGRAPHICS
 70
     1
  9
$MEASUREMENT
 70
     1
  9
$CELWEIGHT
370
    -1
  9
$ENDCAPS
280
     0
  9
$JOINSTYLE
280
     0
  9
$LWDISPLAY
290
     1
  9
$INSUNITS
 70
     4
  9
$HYPERLINKBASE
  1

  9
$STYLESHEET
  1

  9
$XEDIT
290
     1
  9
$CEPSNTYPE
380
     0
  9
$PSTYLEMODE
290
     1
  9
$FINGERPRINTGUID
  2
{4752ccd5-4c14-428e-861a-98a049ae3325}
  9
$VERSIONGUID
  2
{FAEB1C32-E019-11D5-929B-00C0DF256EC4}
  9
$EXTNAMES
290
     1
  9
$PSVPSCALE
 40
0.0
  9
$OLESTARTUP
290
     0
  0
ENDSEC
  0
SECTION
  2
CLASSES
  0
CLASS
  1
ACDBDICTIONARYWDFLT
  2
AcDbDictionaryWithDefault
  3
ObjectDBX Classes
 90
        0
280
     0
281
     0
  0
CLASS
  1
VISUALSTYLE
  2
AcDbVisualStyle
  3
ObjectDBX Classes
 90
     4095
280
     0
281
     0
  0
CLASS
  1
MATERIAL
  2
AcDbMaterial
  3
ObjectDBX Classes
 90
     1153
280
     0
281
     0
  0
CLASS
  1
SCALE
  2
AcDbScale
  3
ObjectDBX Classes
 90
     1153
280
     0
281
     0
  0
CLASS
  1
TABLESTYLE
  2
AcDbTableStyle
  3
ObjectDBX Classes
 90
     4095
280
     0
281
     0
  0
CLASS
  1
MLEADERSTYLE
  2
AcDbMLeaderStyle
  3
ACDB_MLEADERSTYLE_CLASS
 90
     4095
280
     0
281
     0
  0
CLASS
  1
SUN
  2
AcDbSun
  3
SCENEOE
 90
     1153
280
     0
281
     0
  0
CLASS
  1
ACDBPLACEHOLDER
  2
AcDbPlaceHolder
  3
ObjectDBX Classes
 90
        0
280
     0
281
     0
  0
CLASS
  1
LAYOUT
  2
AcDbLayout
  3
ObjectDBX Classes
 90
        0
280
     0
281
     0
  0
ENDSEC
  0
SECTION
  2
TABLES
  0
TABLE
  2
VPORT
  5
8
330
0
100
AcDbSymbolTable
 70
     1
  0
VPORT
  5
29
330
8
100
AcDbSymbolTableRecord
100
AcDbViewportTableRecord
  2
*Active
 70
     0
 10
0.0
 20
0.0
 11
1.0
 21
1.0
 12
-240.9142296578
 22
-117.6730863571
 13
0.0
 23
0.0
 14
10.0
 24
10.0
 15
10.0
 25
10.0
 16
0.0
 26
0.0
 36
1.0
 17
0.0
 27
0.0
 37
0.0
 40
359.192944166
 41
1.0129004246
 42
50.0
 43
0.0
 44
0.0
 50
0.0
 51
0.0
 71
     0
 72
   100
 73
     1
 74
     3
 75
     0
 76
     0
 77
     0
 78
     0
281
     0
 65
     1
110
0.0
120
0.0
130
0.0
111
1.0
121
0.0
131
0.0
112
0.0
122
1.0
132
0.0
 79
     0
146
0.0
  0
ENDTAB
  0
TABLE
  2
LTYPE
  5
5
330
0
100
AcDbSymbolTable
 70
     6
  0
LTYPE
  5
14
330
5
100
AcDbSymbolTableRecord
100
AcDbLinetypeTableRecord
  2
ByBlock
 70
     0
  3

 72
    65
 73
     0
 40
0.0
  0
LTYPE
  5
15
330
5
100
AcDbSymbolTableRecord
100
AcDbLinetypeTableRecord
  2
ByLayer
 70
     0
  3

 72
    65
 73
     0
 40
0.0
  0
LTYPE
  5
16
330
5
100
AcDbSymbolTableRecord
100
AcDbLinetypeTableRecord
  2
Continuous
 70
     0
  3
Solid line
 72
    65
 73
     0
 40
0.0
  0
LTYPE
  5
5E
330
5
100
AcDbSymbolTableRecord
100
AcDbLinetypeTableRecord
  2
HIDDEN
 70
     0
  3
Hidden __ __ __ __ __ __ __ __ __ __ __ __ __ __
 72
    65
 73
     2
 40
1.905
 49
1.27
 74
     0
 49
-0.635
 74
     0
  0
LTYPE
  5
5F
330
5
100
AcDbSymbolTableRecord
100
AcDbLinetypeTableRecord
  2
PHANTOM
 70
     0
  3
Phantom ______  __  __  ______  __  __  ______
 72
    65
 73
     6
 40
12.7
 49
6.35
 74
     0
 49
-1.27
 74
     0
 49
1.27
 74
     0
 49
-1.27
 74
     0
 49
1.27
 74
     0
 49
-1.27
 74
     0
  0
LTYPE
  5
60
330
5
100
AcDbSymbolTableRecord
100
AcDbLinetypeTableRecord
  2
CENTER
 70
     0
  3
Center ____ _ ____ _ ____ _ ____ _ ____ _ ____
 72
    65
 73
     4
 40
10.16
 49
6.35
 74
     0
 49
-1.27
 74
     0
 49
1.27
 74
     0
 49
-1.27
 74
     0
  0
LTYPE
  5
61
330
5
100
AcDbSymbolTableRecord
100
AcDbLinetypeTableRecord
  2
CENTERX2
 70
     0
  3
Center (2x) ________  __  ________  __  _____
 72
    65
 73
     4
 40
20.32
 49
12.7
 74
     0
 49
-2.54
 74
     0
 49
2.54
 74
     0
 49
-2.54
 74
     0
  0
LTYPE
  5
62
330
5
100
AcDbSymbolTableRecord
100
AcDbLinetypeTableRecord
  2
DOT2
 70
     0
  3
Dot (.5x) ........................................
 72
    65
 73
     2
 40
0.635
 49
0.0
 74
     0
 49
-0.635
 74
     0
  0
ENDTAB
  0
TABLE
  2
LAYER
  5
2
330
0
100
AcDbSymbolTable
 70
     1
  0
LAYER
  5
10
330
2
100
AcDbSymbolTableRecord
100
AcDbLayerTableRecord
  2
0
 70
     0
 62
     7
  6
Continuous
370
    -3
390
F
  0
ENDTAB
  0
TABLE
  2
STYLE
  5
3
330
0
100
AcDbSymbolTable
 70
     2
  0
STYLE
  5
11
330
3
100
AcDbSymbolTableRecord
100
AcDbTextStyleTableRecord
  2
Standard
 70
     0
 40
0.0
 41
1.0
 50
0.0
 71
     0
 42
3.5
  3
txt
  4

  0
STYLE
  5
9D
330
3
100
AcDbSymbolTableRecord
100
AcDbTextStyleTableRecord
  2
SLDTEXTSTYLE0
 70
     0
 40
0.0
 41
0.7
 50
0.0
 71
     0
 42
3.5
  3
TXT
  4

  0
ENDTAB
  0
TABLE
  2
VIEW
  5
6
330
0
100
AcDbSymbolTable
 70
     0
  0
ENDTAB
  0
TABLE
  2
UCS
  5
7
330
0
100
AcDbSymbolTable
 70
     0
  0
ENDTAB
  0
TABLE
  2
APPID
  5
9
330
0
100
AcDbSymbolTable
 70
     1
  0
APPID
  5
12
330
9
100
AcDbSymbolTableRecord
100
AcDbRegAppTableRecord
  2
ACAD
 70
     0
  0
ENDTAB
  0
TABLE
  2
DIMSTYLE
  5
A
330
0
100
AcDbSymbolTable
 70
     1
100
AcDbDimStyleTable
  0
DIMSTYLE
105
27
330
A
100
AcDbSymbolTableRecord
100
AcDbDimStyleTableRecord
  2
ISO-25
 70
     0
 41
2.5
 42
0.625
 43
3.75
 44
1.25
 73
     0
 74
     0
 77
     1
 78
     8
140
2.5
141
2.5
143
0.0393700787
147
0.625
171
     3
172
     1
178
     0
271
     2
272
     2
274
     3
278
    44
283
     0
284
     8
340
11
  0
ENDTAB
  0
TABLE
  2
BLOCK_RECORD
  5
1
330
0
100
AcDbSymbolTable
 70
     1
  0
BLOCK_RECORD
  5
1F
330
1
100
AcDbSymbolTableRecord
100
AcDbBlockTableRecord
  2
*Model_Space
340
22
  0
BLOCK_RECORD
  5
1B
330
1
100
AcDbSymbolTableRecord
100
AcDbBlockTableRecord
  2
*Paper_Space
340
1E
  0
BLOCK_RECORD
  5
23
330
1
100
AcDbSymbolTableRecord
100
AcDbBlockTableRecord
  2
*Paper_Space0
340
26
  0
ENDTAB
  0
ENDSEC
  0
SECTION
  2
BLOCKS
  0
BLOCK
  5
20
330
1F
100
AcDbEntity
  8
0
100
AcDbBlockBegin
  2
*Model_Space
 70
     0
 10
0.0
 20
0.0
 30
0.0
  3
*Model_Space
  1

  0
ENDBLK
  5
21
330
1F
100
AcDbEntity
  8
0
100
AcDbBlockEnd
  0
BLOCK
  5
1C
330
1B
100
AcDbEntity
 67
     1
  8
0
100
AcDbBlockBegin
  2
*Paper_Space
 70
     0
 10
0.0
 20
0.0
 30
0.0
  3
*Paper_Space
  1

  0
ENDBLK
  5
1D
330
1B
100
AcDbEntity
 67
     1
  8
0
100
AcDbBlockEnd
  0
BLOCK
  5
24
330
23
100
AcDbEntity
  8
0
100
AcDbBlockBegin
  2
*Paper_Space0
 70
     0
 10
0.0
 20
0.0
 30
0.0
  3
*Paper_Space0
  1

  0
ENDBLK
  5
25
330
23
100
AcDbEntity
  8
0
100
AcDbBlockEnd
  0
ENDSEC
  0
SECTION
  2
ENTITIES
  0
CIRCLE
  5
63
330
1F
100
AcDbEntity
  8
0
  6
Continuous
 62
     7
370
    25
100
AcDbCircle
 10
-412.2606441888
 20
-146.7480589875
 30
0.0
 40
1.749999999999886
  0
CIRCLE
  5
64
330
1F
100
AcDbEntity
  8
0
  6
Continuous
 62
     7
370
    25
100
AcDbCircle
 10
-416.2606441888
 20
-150.7480589875
 30
0.0
 40
1.75
  0
CIRCLE
  5
65
330
1F
100
AcDbEntity
  8
0
  6
Continuous
 62
     7
370
    25
100
AcDbCircle
 10
-299.7105921134
 20
-288.7480589875
 30
0.0
 40
1.749999999999886
  0
CIRCLE
  5
6D
330
1F
100
AcDbEntity
  8
0
  6
Continuous
 62
     7
370
    25
100
AcDbCircle
 10
-73.0042171078
 20
-254.4811498981
 30
0.0
 40
1.749999999999972
  0
CIRCLE
  5
6E
330
1F
100
AcDbEntity
  8
0
  6
Continuous
 62
     7
370
    25
100
AcDbCircle
 10
-138.7186205335
 20
-175.8219110825
 30
0.0
 40
1.643382275637379
  0
SPLINE
  5
72
330
1F
100
AcDbEntity
  8
0
  6
Continuous
 62
     7
370
    25
100
AcDbSpline
210
0.0
220
0.0
230
1.0
 70
     8
 71
     3
 72
    36
 73
    32
 74
     0
 42
0.00000001
 43
0.00000001
 40
0.0
 40
0.0
 40
0.0
 40
0.0
 40
0.0624999999999998
 40
0.0624999999999998
 40
0.1249999999999996
 40
0.1249999999999996
 40
0.1874999999999994
 40
0.1874999999999994
 40
0.2499999999999995
 40
0.2499999999999995
 40
0.3124999999999993
 40
0.3124999999999993
 40
0.3749999999999991
 40
0.3749999999999991
 40
0.499999999999999
 40
0.499999999999999
 40
0.5624999999999991
 40
0.5624999999999991
 40
0.6249999999999992
 40
0.6249999999999992
 40
0.6874999999999993
 40
0.6874999999999993
 40
0.7499999999999994
 40
0.7499999999999994
 40
0.8124999999999997
 40
0.8124999999999997
 40
0.8749999999999998
 40
0.8749999999999998
 40
0.9374999999999999
 40
0.9374999999999999
 40
1.0
 40
1.0
 40
1.0
 40
1.0
 10
-145.7186205334905
 20
-182.8219110825485
 30
0.0
 10
-143.2399872726756
 20
-182.6370496577151
 30
0.0
 10
-140.735779826054
 20
-182.5513348605445
 30
0.0
 10
-135.6521352242982
 20
-182.4483272939524
 30
0.0
 10
-133.0728888521179
 20
-182.4313688660016
 30
0.0
 10
-127.8470442019236
 20
-182.4003155709096
 30
0.0
 10
-125.2006367068634
 20
-182.386555045239
 30
0.0
 10
-119.8742016986383
 20
-182.3499529213389
 30
0.0
 10
-117.1943649684272
 20
-182.3274456645804
 30
0.0
 10
-111.8549339740612
 20
-182.3049890345848
 30
0.0
 10
-109.1955304928602
 20
-182.3053740028186
 30
0.0
 10
-103.9652355884877
 20
-182.3938941242134
 30
0.0
 10
-101.3945349482702
 20
-182.482363618845
 30
0.0
 10
-93.93063093141323
 20
-183.0124704840418
 30
0.0
 10
-89.28757948645308
 20
-183.7180779538431
 30
0.0
 10
-83.2929467958885
 20
-185.9274278706175
 30
0.0
 10
-81.45619097930623
 20
-186.8563845442769
 30
0.0
 10
-78.17387107781387
 20
-189.1977458529289
 30
0.0
 10
-76.72849777585775
 20
-190.6104848293924
 30
0.0
 10
-74.28339570537085
 20
-194.0019161098336
 30
0.0
 10
-73.28385771979399
 20
-195.9809427552823
 30
0.0
 10
-71.76494525991755
 20
-200.5608266204598
 30
0.0
 10
-71.24576156857201
 20
-203.1620181816596
 30
0.0
 10
-70.69641936249043
 20
-209.0054507615673
 30
0.0
 10
-70.6664516307084
 20
-212.2480261217461
 30
0.0
 10
-71.0730222079472
 20
-219.3467565751782
 30
0.0
 10
-71.50975129992204
 20
-223.2032460099023
 30
0.0
 10
-72.79009209911014
 20
-231.4456160362063
 30
0.0
 10
-73.6338945892774
 20
-235.831830969257
 30
0.0
 10
-75.62593098090927
 20
-244.9827143200874
 30
0.0
 10
-76.77435566532783
 20
-249.7477170793379
 30
0.0
 10
-77.99949481992671
 20
-254.5880880748737
 30
0.0
  0
SPLINE
  5
74
330
1F
100
AcDbEntity
  8
0
  6
Continuous
 62
     7
370
    25
100
AcDbSpline
210
0.0
220
0.0
230
1.0
 70
     8
 71
     3
 72
    42
 73
    38
 74
     0
 42
0.00000001
 43
0.00000001
 40
0.0
 40
0.0
 40
0.0
 40
0.0
 40
0.03125
 40
0.03125
 40
0.0625
 40
0.0625
 40
0.09375
 40
0.09375
 40
0.1250000000000001
 40
0.1250000000000001
 40
0.1875000000000001
 40
0.1875000000000001
 40
0.2500000000000001
 40
0.2500000000000001
 40
0.3125
 40
0.3125
 40
0.375
 40
0.375
 40
0.4374999999999999
 40
0.4374999999999999
 40
0.4999999999999999
 40
0.4999999999999999
 40
0.5624999999999999
 40
0.5624999999999999
 40
0.6249999999999999
 40
0.6249999999999999
 40
0.6875
 40
0.6875
 40
0.75
 40
0.75
 40
0.8125
 40
0.8125
 40
0.875
 40
0.875
 40
0.9375000000000001
 40
0.9375000000000001
 40
1.0
 40
1.0
 40
1.0
 40
1.0
 10
-68.62804721156863
 20
-257.0352327090676
 30
0.0
 10
-68.2660396945842
 20
-255.164035764459
 30
0.0
 10
-67.87578814808279
 20
-253.2030052809033
 30
0.0
 10
-67.07868285335725
 20
-249.1651933327367
 30
0.0
 10
-66.671819077109
 20
-247.0883977440283
 30
0.0
 10
-65.87591226951412
 20
-242.8749917992764
 30
0.0
 10
-65.48685921014332
 20
-240.7383673191354
 30
0.0
 10
-64.75585476901178
 20
-236.4537118932381
 30
0.0
 10
-64.41389335922688
 20
-234.3056668233844
 30
0.0
 10
-63.49532128556107
 20
-227.9063780843678
 30
0.0
 10
-63.02811243916981
 20
-223.7030668850702
 30
0.0
 10
-62.5263173799725
 20
-215.6742257686605
 30
0.0
 10
-62.49141027039528
 20
-211.8482438804292
 30
0.0
 10
-62.93283603638844
 20
-204.7318478144867
 30
0.0
 10
-63.40884801518759
 20
-201.4409816656563
 30
0.0
 10
-64.8973377962595
 20
-195.4728343155694
 30
0.0
 10
-65.90949470176099
 20
-192.7951011431937
 30
0.0
 10
-68.45173556446565
 20
-188.0650269253614
 30
0.0
 10
-69.98149862489755
 20
-186.0122339087857
 30
0.0
 10
-73.50627531873153
 20
-182.4911962577612
 30
0.0
 10
-75.50096805536243
 20
-181.0224996521934
 30
0.0
 10
-79.8784168190424
 20
-178.5897192878276
 30
0.0
 10
-82.26085194932011
 20
-177.6251835579105
 30
0.0
 10
-87.32171431705932
 20
-176.0952567524951
 30
0.0
 10
-89.99982065774952
 20
-175.5294137058779
 30
0.0
 10
-95.55469726553557
 20
-174.6794305512894
 30
0.0
 10
-98.43114663586012
 20
-174.3948384721993
 30
0.0
 10
-104.2897510277316
 20
-173.9915011470422
 30
0.0
 10
-107.2715851525072
 20
-173.8723039298562
 30
0.0
 10
-113.261997586831
 20
-173.6990449666065
 30
0.0
 10
-116.2702549996079
 20
-173.6445312494236
 30
0.0
 10
-122.2581762553564
 20
-173.5286318015722
 30
0.0
 10
-125.2375192015568
 20
-173.4667940997846
 30
0.0
 10
-131.1455243845847
 20
-173.306502208981
 30
0.0
 10
-134.0738657246411
 20
-173.2075960488458
 30
0.0
 10
-139.9006580739629
 20
-172.9992449120412
 30
0.0
 10
-142.7987881864571
 20
-172.8893479642527
 30
0.0
 10
-145.7186205334905
 20
-172.8219110825485
 30
0.0
  0
CIRCLE
  5
75
330
1F
100
AcDbEntity
  8
0
  6
Continuous
 62
     7
370
    25
100
AcDbCircle
 10
-142.7186205335
 20
-179.8219110825
 30
0.0
 40
1.749999999999972
  0
CIRCLE
  5
76
330
1F
100
AcDbEntity
  8
0
  6
Continuous
 62
     7
370
    25
100
AcDbCircle
 10
-302.4572453139
 20
-48.7480589875
 30
0.0
 40
1.75
  0
CIRCLE
  5
77
330
1F
100
AcDbEntity
  8
0
  6
Continuous
 62
     7
370
    25
100
AcDbCircle
 10
-412.2606441888
 20
53.2519410125
 30
0.0
 40
1.749999999999943
  0
CIRCLE
  5
78
330
1F
100
AcDbEntity
  8
0
  6
Continuous
 62
     7
370
    25
100
AcDbCircle
 10
-416.2606441888
 20
49.2519410125
 30
0.0
 40
1.749999999999943
  0
CIRCLE
  5
7F
330
1F
100
AcDbEntity
  8
0
  6
Continuous
 62
     7
370
    25
100
AcDbCircle
 10
-108.2236277265
 20
-46.5319933201
 30
0.0
 40
1.750000000000043
  0
CIRCLE
  5
80
330
1F
100
AcDbEntity
  8
0
  6
Continuous
 62
     7
370
    25
100
AcDbCircle
 10
-190.8510182803
 20
34.7949087755
 30
0.0
 40
1.749999999999972
  0
CIRCLE
  5
81
330
1F
100
AcDbEntity
  8
0
  6
Continuous
 62
     7
370
    25
100
AcDbCircle
 10
-194.8510182803
 20
30.7949087755
 30
0.0
 40
1.749999999999943
  0
SPLINE
  5
83
330
1F
100
AcDbEntity
  8
0
  6
Continuous
 62
     7
370
    25
100
AcDbSpline
210
0.0
220
0.0
230
1.0
 70
     8
 71
     3
 72
    60
 73
    56
 74
     0
 42
0.00000001
 43
0.00000001
 40
0.0
 40
0.0
 40
0.0
 40
0.0
 40
0.0312500000000001
 40
0.0312500000000001
 40
0.0625000000000002
 40
0.0625000000000002
 40
0.0937500000000004
 40
0.0937500000000004
 40
0.1250000000000005
 40
0.1250000000000005
 40
0.1562500000000006
 40
0.1562500000000006
 40
0.1875000000000008
 40
0.1875000000000008
 40
0.2187500000000009
 40
0.2187500000000009
 40
0.2500000000000011
 40
0.2500000000000011
 40
0.2812500000000011
 40
0.2812500000000011
 40
0.3125000000000012
 40
0.3125000000000012
 40
0.3750000000000015
 40
0.3750000000000015
 40
0.4375000000000018
 40
0.4375000000000018
 40
0.500000000000002
 40
0.500000000000002
 40
0.5625000000000022
 40
0.5625000000000022
 40
0.6250000000000024
 40
0.6250000000000024
 40
0.6562500000000023
 40
0.6562500000000023
 40
0.6875000000000021
 40
0.6875000000000021
 40
0.7187500000000019
 40
0.7187500000000019
 40
0.7500000000000017
 40
0.7500000000000017
 40
0.7812500000000014
 40
0.7812500000000014
 40
0.8125000000000012
 40
0.8125000000000012
 40
0.843750000000001
 40
0.843750000000001
 40
0.8750000000000008
 40
0.8750000000000008
 40
0.9062500000000007
 40
0.9062500000000007
 40
0.9375000000000004
 40
0.9375000000000004
 40
0.9687500000000002
 40
0.9687500000000002
 40
1.0
 40
1.0
 40
1.0
 40
1.0
 10
-104.7030295592771
 20
-50.11798542656168
 30
0.0
 10
-103.2690513688254
 20
-47.33797169136615
 30
0.0
 10
-101.8968901711753
 20
-44.41071742912203
 30
0.0
 10
-99.30865073232886
 20
-38.39167367927601
 30
0.0
 10
-98.0925896360757
 20
-35.29986374861596
 30
0.0
 10
-95.84376346069295
 20
-29.06281619589565
 30
0.0
 10
-94.81100925850333
 20
-25.91755145695068
 30
0.0
 10
-92.95030761882572
 20
-19.66660606922155
 30
0.0
 10
-92.12236517979866
 20
-16.56089246183307
 30
0.0
 10
-90.68685890019384
 20
-10.46486976770929
 30
0.0
 10
-90.07929456912193
 20
-7.474522712757101
 30
0.0
 10
-89.09411133612043
 20
-1.668929374239361
 30
0.0
 10
-88.7164868442653
 20
1.146359055048604
 30
0.0
 10
-88.1948378539048
 20
6.557058093181759
 30
0.0
 10
-88.05080305556673
 20
9.152514193147915
 30
0.0
 10
-87.99431562660648
 20
14.0923729036157
 30
0.0
 10
-88.08184837576854
 20
16.43682351852985
 30
0.0
 10
-88.4811811573357
 20
20.85569126791228
 30
0.0
 10
-88.7929626386656
 20
22.93015808797757
 30
0.0
 10
-89.62868004089447
 20
26.80080531558623
 30
0.0
 10
-90.15259386938295
 20
28.5970362578041
 30
0.0
 10
-92.01811758372519
 20
33.56975079631982
 30
0.0
 10
-93.65477141861561
 20
36.32731109403667
 30
0.0
 10
-97.54521357321208
 20
40.82118189598144
 30
0.0
 10
-99.79803153687766
 20
42.55902745277412
 30
0.0
 10
-104.7215766025586
 20
45.18626813129301
 30
0.0
 10
-107.3912188859769
 20
46.07701299972722
 30
0.0
 10
-112.9514056940469
 20
47.21481723844973
 30
0.0
 10
-115.8408007966125
 20
47.46293453989225
 30
0.0
 10
-121.6794142803667
 20
47.51568056116509
 30
0.0
 10
-124.6274684950481
 20
47.32096888689888
 30
0.0
 10
-129.0267287828145
 20
46.82337049628701
 30
0.0
 10
-130.490008810428
 20
46.62294762752439
 30
0.0
 10
-133.4087016013773
 20
46.17007092684769
 30
0.0
 10
-134.8640801591486
 20
45.91761291419183
 30
0.0
 10
-137.7729484856795
 20
45.37502616159713
 30
0.0
 10
-139.2264055713507
 20
45.08488327260299
 30
0.0
 10
-142.146050568975
 20
44.47882649213855
 30
0.0
 10
-143.6122077098397
 20
44.16288765119234
 30
0.0
 10
-146.5814669160915
 20
43.51526138954595
 30
0.0
 10
-148.0845405119146
 20
43.18353738684227
 30
0.0
 10
-151.1623313493242
 20
42.51340562551867
 30
0.0
 10
-152.7370228123949
 20
42.1749488202606
 30
0.0
 10
-156.0040479800092
 20
41.50073983941407
 30
0.0
 10
-157.6963589866092
 20
41.16492532044582
 30
0.0
 10
-161.2566503886228
 20
40.50738044078886
 30
0.0
 10
-163.1246115561889
 20
40.18557360787172
 30
0.0
 10
-167.106889396247
 20
39.57149373707991
 30
0.0
 10
-169.2211907005115
 20
39.27912926602126
 30
0.0
 10
-173.7800143702465
 20
38.74596917605519
 30
0.0
 10
-176.2245256166336
 20
38.5050663309012
 30
0.0
 10
-181.5412130069979
 20
38.10642659266544
 30
0.0
 10
-184.4133826705598
 20
37.94856584816747
 30
0.0
 10
-190.6966745345163
 20
37.7606323499273
 30
0.0
 10
-194.1077952826875
 20
37.73041828749227
 30
0.0
 10
-197.8510182802537
 20
37.79490877548042
 30
0.0
  0
SPLINE
  5
87
330
1F
100
AcDbEntity
  8
0
  6
Continuous
 62
     7
370
    25
100
AcDbSpline
210
0.0
220
0.0
230
1.0
 70
     8
 71
     3
 72
    62
 73
    58
 74
     0
 42
0.00000001
 43
0.00000001
 40
0.0
 40
0.0
 40
0.0
 40
0.0
 40
0.0312499999999998
 40
0.0312499999999998
 40
0.0624999999999997
 40
0.0624999999999997
 40
0.0937499999999995
 40
0.0937499999999995
 40
0.1249999999999994
 40
0.1249999999999994
 40
0.1562499999999992
 40
0.1562499999999992
 40
0.1874999999999991
 40
0.1874999999999991
 40
0.2187499999999989
 40
0.2187499999999989
 40
0.2499999999999987
 40
0.2499999999999987
 40
0.2812499999999986
 40
0.2812499999999986
 40
0.3124999999999984
 40
0.3124999999999984
 40
0.3749999999999986
 40
0.3749999999999986
 40
0.4374999999999988
 40
0.4374999999999988
 40
0.4687499999999988
 40
0.4687499999999988
 40
0.4999999999999989
 40
0.4999999999999989
 40
0.531249999999999
 40
0.531249999999999
 40
0.562499999999999
 40
0.562499999999999
 40
0.5937499999999991
 40
0.5937499999999991
 40
0.6249999999999991
 40
0.6249999999999991
 40
0.6874999999999992
 40
0.6874999999999992
 40
0.7499999999999993
 40
0.7499999999999993
 40
0.7812499999999994
 40
0.7812499999999994
 40
0.8124999999999996
 40
0.8124999999999996
 40
0.8437499999999996
 40
0.8437499999999996
 40
0.8749999999999997
 40
0.8749999999999997
 40
0.9062499999999997
 40
0.9062499999999997
 40
0.9374999999999998
 40
0.9374999999999998
 40
0.9687499999999998
 40
0.9687499999999998
 40
1.0
 40
1.0
 40
1.0
 40
1.0
 10
-197.8510182802537
 20
27.79490877548041
 30
0.0
 10
-193.230296343966
 20
27.87167271023005
 30
0.0
 10
-189.3190823962492
 20
27.97731615750137
 30
0.0
 10
-182.4650690841741
 20
28.23758237705279
 30
0.0
 10
-179.5228621611758
 20
28.39233794310292
 30
0.0
 10
-174.2640554896816
 20
28.74736498722058
 30
0.0
 10
-171.9479925386109
 20
28.94773863273059
 30
0.0
 10
-167.6882302101712
 20
29.39200875004588
 30
0.0
 10
-165.7450143587695
 20
29.63597951039307
 30
0.0
 10
-162.0519709064777
 20
30.16428505262681
 30
0.0
 10
-160.3025759325745
 20
30.44866899158174
 30
0.0
 10
-156.8787342158342
 20
31.05163547655035
 30
0.0
 10
-155.2046715734803
 20
31.37024479558587
 30
0.0
 10
-151.861348212535
 20
32.03136185862082
 30
0.0
 10
-150.1924254404003
 20
32.37387673902256
 30
0.0
 10
-146.8267078410813
 20
33.0678721271824
 30
0.0
 10
-145.1302071788041
 20
33.41934288215029
 30
0.0
 10
-141.7046597988724
 20
34.11173464560486
 30
0.0
 10
-139.9758658370523
 20
34.45263175953583
 30
0.0
 10
-136.5008633455126
 20
35.10029379450225
 30
0.0
 10
-134.7548685350319
 20
35.40702342664346
 30
0.0
 10
-129.5326860061774
 20
36.23588757305754
 30
0.0
 10
-126.071742641433
 20
36.66684153165162
 30
0.0
 10
-119.4780600029968
 20
37.05368660469499
 30
0.0
 10
-116.3488785929963
 20
37.00789468368318
 30
0.0
 10
-112.1055523449982
 20
36.41873843587151
 30
0.0
 10
-110.7656644871157
 20
36.13589664380035
 30
0.0
 10
-108.2593612434173
 20
35.37592383125809
 30
0.0
 10
-107.092975179286
 20
34.8987468518289
 30
0.0
 10
-104.9503932645756
 20
33.73427602938619
 30
0.0
 10
-103.974204306425
 20
33.04694406506517
 30
0.0
 10
-102.2204459260662
 20
31.45325857441359
 30
0.0
 10
-101.4428633395072
 20
30.54687751185306
 30
0.0
 10
-100.0865620049083
 20
28.51410771958329
 30
0.0
 10
-99.50781240821554
 20
27.38770478614866
 30
0.0
 10
-98.54190585160983
 20
24.92246063307174
 30
0.0
 10
-98.15470273121915
 20
23.58362128963562
 30
0.0
 10
-97.26004895223953
 20
19.27292668992603
 30
0.0
 10
-97.02078757818438
 20
16.0032122979615
 30
0.0
 10
-97.0984393400054
 20
8.899859330513044
 30
0.0
 10
-97.4128717665983
 20
5.068364532710659
 30
0.0
 10
-98.17280344555456
 20
-0.8597015595218221
 30
0.0
 10
-98.47432551160884
 20
-2.865333391914943
 30
0.0
 10
-99.15839706412683
 20
-6.89426263152608
 30
0.0
 10
-99.54085834118086
 20
-8.917403986981181
 30
0.0
 10
-100.3782821744832
 20
-12.94350643462658
 30
0.0
 10
-100.8331578168361
 20
-14.94627616313331
 30
0.0
 10
-101.8165641256137
 20
-18.9029451219468
 30
0.0
 10
-102.3450115461344
 20
-20.85661492922237
 30
0.0
 10
-103.4889567596511
 20
-24.70185042105033
 30
0.0
 10
-104.1043773472115
 20
-26.59314587579682
 30
0.0
 10
-105.4503219372726
 20
-30.32333964754764
 30
0.0
 10
-106.1807771472833
 20
-32.16192418054442
 30
0.0
 10
-107.8017010080984
 20
-35.82809311701855
 30
0.0
 10
-108.6921116518353
 20
-37.65531743485964
 30
0.0
 10
-110.696624703151
 20
-41.38195022367984
 30
0.0
 10
-111.810682261562
 20
-43.28094955996701
 30
0.0
 10
-113.0785850940029
 20
-45.28429050709862
 30
0.0
  0
LINE
  5
88
330
1F
100
AcDbEntity
  8
0
  6
Continuous
 62
     7
370
    25
100
AcDbLine
 10
-332.9383819997
 20
-143.7480589875
 30
0.0
 11
-419.2606441888
 21
-143.7480589875
 31
0.0
  0
LINE
  5
89
330
1F
100
AcDbEntity
  8
0
  6
Continuous
 62
     7
370
    25
100
AcDbLine
 10
-331.7606441888
 20
-144.4179319686
 30
0.0
 11
-332.9383819997
 21
-143.7480589875
 31
0.0
  0
LINE
  5
8A
330
1F
100
AcDbEntity
  8
0
  6
Continuous
 62
     7
370
    25
100
AcDbLine
 10
-419.2606441888
 20
-153.7480589875
 30
0.0
 11
-335.6188370289
 21
-153.7480589875
 31
0.0
  0
LINE
  5
8B
330
1F
100
AcDbEntity
  8
0
  6
Continuous
 62
     7
370
    25
100
AcDbLine
 10
-419.2606441888
 20
-143.7480589875
 30
0.0
 11
-419.2606441888
 21
-153.7480589875
 31
0.0
  0
LINE
  5
8C
330
1F
100
AcDbEntity
  8
0
  6
Continuous
 62
     7
370
    25
100
AcDbLine
 10
-75.8015992127
 20
-258.7365241269
 30
0.0
 11
-73.2594382996
 21
-259.6600767957
 31
0.0
  0
LINE
  5
8D
330
1F
100
AcDbEntity
  8
0
  6
Continuous
 62
     7
370
    25
100
AcDbLine
 10
-145.7186205335
 20
-172.8219110825
 30
0.0
 11
-145.7186205335
 21
-182.8219110825
 31
0.0
  0
LINE
  5
8E
330
1F
100
AcDbEntity
  8
0
  6
Continuous
 62
     7
370
    25
100
AcDbLine
 10
-339.9609452244
 20
56.2519410125
 30
0.0
 11
-419.2606441888
 21
56.2519410125
 31
0.0
  0
LINE
  5
8F
330
1F
100
AcDbEntity
  8
0
  6
Continuous
 62
     7
370
    25
100
AcDbLine
 10
-419.2606441888
 20
46.2519410125
 30
0.0
 11
-338.5260059926
 21
46.2519410125
 31
0.0
  0
LINE
  5
90
330
1F
100
AcDbEntity
  8
0
  6
Continuous
 62
     7
370
    25
100
AcDbLine
 10
-419.2606441888
 20
56.2519410125
 30
0.0
 11
-419.2606441888
 21
46.2519410125
 31
0.0
  0
LINE
  5
91
330
1F
100
AcDbEntity
  8
0
  6
Continuous
 62
     7
370
    25
100
AcDbLine
 10
-197.8510182803
 20
37.7949087755
 30
0.0
 11
-197.8510182803
 21
27.7949087755
 31
0.0
  0
LINE
  5
92
330
1F
100
AcDbEntity
  8
0
  6
Continuous
 62
     7
370
    25
100
AcDbLine
 10
-111.8957825967
 20
-50.1727679964
 30
0.0
 11
-109.5882486042
 21
-51.5302240733
 31
0.0
  0
ARC
  5
93
330
1F
100
AcDbEntity
  8
0
  6
Continuous
 62
     7
370
    25
100
AcDbCircle
 10
-384.2606441888
 20
-235.3505993659
 30
0.0
 40
105.0
100
AcDbArc
 50
327.7256022523
 51
60.0
  0
ARC
  5
94
330
1F
100
AcDbEntity
  8
0
  6
Continuous
 62
     7
370
    25
100
AcDbCircle
 10
-299.7105921134
 20
-288.7480589875
 30
0.0
 40
5.000000000000082
100
AcDbArc
 50
147.7256022523
 51
327.7256022523
  0
ARC
  5
95
330
1F
100
AcDbEntity
  8
0
  6
Continuous
 62
     7
370
    25
100
AcDbCircle
 10
-384.2606441888
 20
-235.3505993659
 30
0.0
 40
94.99999999999989
100
AcDbArc
 50
327.7256022523
 51
59.2015903448
  0
ARC
  5
96
330
1F
100
AcDbEntity
  8
0
  6
Continuous
 62
     7
370
    25
100
AcDbCircle
 10
-72.0643313675
 20
-256.3704386057
 30
0.0
 40
3.500000000000069
100
AcDbArc
 50
250.0342032921
 51
349.0506488929
  0
ARC
  5
97
330
1F
100
AcDbEntity
  8
0
  6
Continuous
 62
     7
370
    25
100
AcDbCircle
 10
-74.6064922806
 20
-255.4468859369
 30
0.0
 40
3.500000000000175
100
AcDbArc
 50
165.7962510442
 51
250.0342032921
  0
ARC
  5
98
330
1F
100
AcDbEntity
  8
0
  6
Continuous
 62
     7
370
    25
100
AcDbCircle
 10
-324.2606441888
 20
0.0
 30
0.0
 40
58.40188627333112
100
AcDbArc
 50
294.0973931383
 51
105.5947811103
  0
ARC
  5
99
330
1F
100
AcDbEntity
  8
0
  6
Continuous
 62
     7
370
    25
100
AcDbCircle
 10
-302.4572453139
 20
-48.7480589875
 30
0.0
 40
5.000000000000127
100
AcDbArc
 50
114.0973931383
 51
294.0973931383
  0
ARC
  5
9A
330
1F
100
AcDbEntity
  8
0
  6
Continuous
 62
     7
370
    25
100
AcDbCircle
 10
-324.2606441888
 20
0.0
 30
0.0
 40
48.40188627333093
100
AcDbArc
 50
294.0973931383
 51
107.1411914447
  0
ARC
  5
9B
330
1F
100
AcDbEntity
  8
0
  6
Continuous
 62
     7
370
    25
100
AcDbCircle
 10
-107.8135974112
 20
-48.5135018216
 30
0.0
 40
3.500000000000004
100
AcDbArc
 50
239.5329214307
 51
332.7145495043
  0
ARC
  5
9C
330
1F
100
AcDbEntity
  8
0
  6
Continuous
 62
     7
370
    25
100
AcDbCircle
 10
-110.1211314037
 20
-47.1560457448
 30
0.0
 40
3.500000000000078
100
AcDbArc
 50
147.6705182759
 51
239.5329214307
  0
MTEXT
  5
9E
330
1F
100
AcDbEntity
  8
0
  6
Continuous
 62
     7
100
AcDbMText
 10
-419.2606441888
 20
-294.7676253792
 30
0.0
 40
4.83362
 41
0.0
 71
     1
 72
     1
  1
Produto educacional do SOLIDWORKS.
  7
SLDTEXTSTYLE0
 73
     1
 44
1.0
  0
MTEXT
  5
9F
330
1F
100
AcDbEntity
  8
0
  6
Continuous
 62
     7
100
AcDbMText
 10
-419.2606441888
 20
-302.0180553792
 30
0.0
 40
4.83362
 41
0.0
 71
     1
 72
     1
  1
Somente para fins de instrução.
  7
SLDTEXTSTYLE0
 73
     1
 44
1.0
  0
ENDSEC
  0
SECTION
  2
OBJECTS
  0
DICTIONARY
  5
C
330
0
100
AcDbDictionary
281
     1
  3
ACAD_GROUP
350
D
  3
ACAD_LAYOUT
350
1A
  3
ACAD_MLINESTYLE
350
17
  3
ACAD_PLOTSETTINGS
350
19
  3
ACAD_PLOTSTYLENAME
350
E
  3
ACAD_SCALELIST
350
47
  3
DWGPROPS
350
A0
  0
DICTIONARY
  5
D
102
{ACAD_REACTORS
330
C
102
}
330
C
100
AcDbDictionary
281
     1
  0
DICTIONARY
  5
1A
102
{ACAD_REACTORS
330
C
102
}
330
C
100
AcDbDictionary
281
     1
  3
Layout1
350
1E
  3
Layout2
350
26
  3
Model
350
22
  0
DICTIONARY
  5
17
102
{ACAD_REACTORS
330
C
102
}
330
C
100
AcDbDictionary
281
     1
  3
Standard
350
18
  0
DICTIONARY
  5
19
102
{ACAD_REACTORS
330
C
102
}
330
C
100
AcDbDictionary
281
     1
  0
ACDBDICTIONARYWDFLT
  5
E
102
{ACAD_REACTORS
330
C
102
}
330
C
100
AcDbDictionary
281
     1
  3
Normal
350
F
100
AcDbDictionaryWithDefault
340
F
  0
DICTIONARY
  5
47
102
{ACAD_REACTORS
330
C
102
}
330
C
100
AcDbDictionary
281
     1
  3
A0
350
48
  3
A1
350
49
  3
A2
350
4A
  3
A3
350
4B
  3
A4
350
4C
  3
A5
350
4D
  3
A6
350
4E
  3
A7
350
4F
  3
A8
350
50
  3
A9
350
51
  3
B0
350
52
  3
B1
350
53
  3
B2
350
54
  3
B3
350
55
  3
B4
350
56
  3
B5
350
57
  3
B6
350
58
  0
XRECORD
  5
A0
102
{ACAD_REACTORS
330
C
102
}
330
C
100
AcDbXrecord
280
     1
  1
DWGPROPS COOKIE
  2

  3

  4

  6

  7

  8
Rafael
  9

300
=
301
=
302
=
303
=
304
=
305
=
306
=
307
=
308
=
309
=
 40
0.0
 41
2460224.808425486
 42
2460224.808454213
  1

 90
        0
  0
LAYOUT
  5
1E
102
{ACAD_REACTORS
330
1A
102
}
330
1A
100
AcDbPlotSettings
  1

  2
none_device
  4

  6

 40
0.0
 41
0.0
 42
0.0
 43
0.0
 44
0.0
 45
0.0
 46
0.0
 47
0.0
 48
0.0
 49
0.0
140
0.0
141
0.0
142
1.0
143
1.0
 70
   688
 72
     1
 73
     0
 74
     5
  7

 75
    16
147
1.0
148
0.0
149
0.0
100
AcDbLayout
  1
Layout1
 70
     1
 71
     1
 10
0.0
 20
0.0
 11
420.0
 21
297.0
 12
0.0
 22
0.0
 32
0.0
 14
1.0000000000E+20
 24
1.0000000000E+20
 34
1.0000000000E+20
 15
-1.0000000000E+20
 25
-1.0000000000E+20
 35
-1.0000000000E+20
146
0.0
 13
0.0
 23
0.0
 33
0.0
 16
1.0
 26
0.0
 36
0.0
 17
0.0
 27
1.0
 37
0.0
 76
     0
330
1B
  0
LAYOUT
  5
26
102
{ACAD_REACTORS
330
1A
102
}
330
1A
100
AcDbPlotSettings
  1

  2
none_device
  4

  6

 40
0.0
 41
0.0
 42
0.0
 43
0.0
 44
0.0
 45
0.0
 46
0.0
 47
0.0
 48
0.0
 49
0.0
140
0.0
141
0.0
142
1.0
143
1.0
 70
   688
 72
     1
 73
     0
 74
     5
  7

 75
    16
147
1.0
148
0.0
149
0.0
100
AcDbLayout
  1
Layout2
 70
     1
 71
     2
 10
0.0
 20
0.0
 11
0.0
 21
0.0
 12
0.0
 22
0.0
 32
0.0
 14
0.0
 24
0.0
 34
0.0
 15
0.0
 25
0.0
 35
0.0
146
0.0
 13
0.0
 23
0.0
 33
0.0
 16
1.0
 26
0.0
 36
0.0
 17
0.0
 27
1.0
 37
0.0
 76
     0
330
23
  0
LAYOUT
  5
22
102
{ACAD_REACTORS
330
1A
102
}
330
1A
100
AcDbPlotSettings
  1

  2
none_device
  4
ANSI_A_(11.00_x_8.50_Inches)
  6

 40
6.35
 41
19.05
 42
6.35000508
 43
19.05000254
 44
279.4
 45
215.9
 46
279.5753456512
 47
160.3228783571
 48
0.0
 49
0.0
140
0.0
141
0.0
142
0.0238960707
143
1.0
 70
  1696
 72
     0
 73
     0
 74
     0
  7

 75
     0
147
0.0179189148
148
-1300.4909072572
149
0.0
100
AcDbLayout
  1
Model
 70
     1
 71
     0
 10
0.0
 20
0.0
 11
420.0
 21
297.0
 12
0.0
 22
0.0
 32
0.0
 14
-419.2606441888
 24
-293.7480589875
 34
0.0
 15
-62.5678151268
 25
58.4018862733
 35
0.0
146
0.0
 13
0.0
 23
0.0
 33
0.0
 16
1.0
 26
0.0
 36
0.0
 17
0.0
 27
1.0
 37
0.0
 76
     0
330
1F
331
29
  0
MLINESTYLE
  5
18
102
{ACAD_REACTORS
330
17
102
}
330
17
100
AcDbMlineStyle
  2
Standard
 70
     0
  3

 62
   256
 51
90.0
 52
90.0
 71
     2
 49
0.5
 62
   256
  6
BYLAYER
 49
-0.5
 62
   256
  6
BYLAYER
  0
ACDBPLACEHOLDER
  5
F
102
{ACAD_REACTORS
330
E
102
}
330
E
  0
SCALE
  5
48
102
{ACAD_REACTORS
330
47
102
}
330
47
100
AcDbScale
 70
     0
300
1:1
140
1.0
141
1.0
290
     1
  0
SCALE
  5
49
102
{ACAD_REACTORS
330
47
102
}
330
47
100
AcDbScale
 70
     0
300
1:2
140
1.0
141
2.0
290
     0
  0
SCALE
  5
4A
102
{ACAD_REACTORS
330
47
102
}
330
47
100
AcDbScale
 70
     0
300
1:4
140
1.0
141
4.0
290
     0
  0
SCALE
  5
4B
102
{ACAD_REACTORS
330
47
102
}
330
47
100
AcDbScale
 70
     0
300
1:5
140
1.0
141
5.0
290
     0
  0
SCALE
  5
4C
102
{ACAD_REACTORS
330
47
102
}
330
47
100
AcDbScale
 70
     0
300
1:8
140
1.0
141
8.0
290
     0
  0
SCALE
  5
4D
102
{ACAD_REACTORS
330
47
102
}
330
47
100
AcDbScale
 70
     0
300
1:10
140
1.0
141
10.0
290
     0
  0
SCALE
  5
4E
102
{ACAD_REACTORS
330
47
102
}
330
47
100
AcDbScale
 70
     0
300
1:16
140
1.0
141
16.0
290
     0
  0
SCALE
  5
4F
102
{ACAD_REACTORS
330
47
102
}
330
47
100
AcDbScale
 70
     0
300
1:20
140
1.0
141
20.0
290
     0
  0
SCALE
  5
50
102
{ACAD_REACTORS
330
47
102
}
330
47
100
AcDbScale
 70
     0
300
1:30
140
1.0
141
30.0
290
     0
  0
SCALE
  5
51
102
{ACAD_REACTORS
330
47
102
}
330
47
100
AcDbScale
 70
     0
300
1:40
140
1.0
141
40.0
290
     0
  0
SCALE
  5
52
102
{ACAD_REACTORS
330
47
102
}
330
47
100
AcDbScale
 70
     0
300
1:50
140
1.0
141
50.0
290
     0
  0
SCALE
  5
53
102
{ACAD_REACTORS
330
47
102
}
330
47
100
AcDbScale
 70
     0
300
1:100
140
1.0
141
100.0
290
     0
  0
SCALE
  5
54
102
{ACAD_REACTORS
330
47
102
}
330
47
100
AcDbScale
 70
     0
300
2:1
140
2.0
141
1.0
290
     0
  0
SCALE
  5
55
102
{ACAD_REACTORS
330
47
102
}
330
47
100
AcDbScale
 70
     0
300
4:1
140
4.0
141
1.0
290
     0
  0
SCALE
  5
56
102
{ACAD_REACTORS
330
47
102
}
330
47
100
AcDbScale
 70
     0
300
8:1
140
8.0
141
1.0
290
     0
  0
SCALE
  5
57
102
{ACAD_REACTORS
330
47
102
}
330
47
100
AcDbScale
 70
     0
300
10:1
140
10.0
141
1.0
290
     0
  0
SCALE
  5
58
102
{ACAD_REACTORS
330
47
102
}
330
47
100
AcDbScale
 70
     0
300
100:1
140
100.0
141
1.0
290
     0
  0
ENDSEC
  0
EOF
